<svg xmlns="http://www.w3.org/2000/svg" width="1800" height="1020" viewBox="0 0 1800 1020" font-family="Segoe UI, Arial, sans-serif">
<rect x="0" y="0" width="1800" height="1020" fill="#0B1220"/>
<defs><marker id="arr" viewBox="0 0 10 10" refX="8" refY="5" markerWidth="7" markerHeight="7" orient="auto-start-reverse"><path d="M0,0 L10,5 L0,10 z" fill="#38BDF8"/></marker></defs>
<rect x="18.0" y="974.0" width="400.0" height="34.0" rx="10" fill="#2A1216" stroke="#F87171" stroke-width="1.5"/>
<text x="30.0" y="996.0" font-size="12.5" font-weight="700" fill="#F87171">⚠️ DRAFT — community draft — not verified, reviewed, or audited</text>
<rect x="40.0" y="24.0" width="1720.0" height="42.0" rx="10" fill="#FFFFFF" stroke="#26334D" stroke-width="1.4"/>
<text x="52.0" y="46.0" font-size="12.5" font-weight="700" fill="#26334D">DERO ECONOMICS</text>
<rect x="40.0" y="66.0" width="1720.0" height="22.0" rx="10" fill="#FFFFFF" stroke="#26334D" stroke-width="1.4"/>
<text x="52.0" y="88.0" font-size="12.5" font-weight="700" fill="#26334D">The coin-side companion to the mining diagram — emission, halving, cap, and the reward split.</text>
<rect x="120.0" y="170.0" width="300.0" height="52.0" rx="10" fill="#141E36" stroke="#34D399" stroke-width="1.6"/>
<text x="132.0" y="192.0" font-size="12.5" font-weight="700" fill="#34D399">HARD CAP</text>
<rect x="120.0" y="230.0" width="300.0" height="70.0" rx="10" fill="#141E36" stroke="#34D399" stroke-width="1.4"/>
<text x="132.0" y="252.0" font-size="12.5" font-weight="700" fill="#34D399">~20,890,694 DERO</text>
<rect x="120.0" y="304.0" width="300.0" height="52.0" rx="10" fill="#FFFFFF" stroke="#26334D" stroke-width="1.4"/>
<text x="132.0" y="326.0" font-size="12.5" font-weight="700" fill="#26334D">the absolute maximum that can ever exist — sound supply</text>
<rect x="460.0" y="170.0" width="300.0" height="52.0" rx="10" fill="#141E36" stroke="#38BDF8" stroke-width="1.6"/>
<text x="472.0" y="192.0" font-size="12.5" font-weight="700" fill="#38BDF8">EMISSION</text>
<rect x="460.0" y="230.0" width="300.0" height="70.0" rx="10" fill="#141E36" stroke="#38BDF8" stroke-width="1.4"/>
<text x="472.0" y="252.0" font-size="12.5" font-weight="700" fill="#38BDF8">via mining rewards</text>
<rect x="460.0" y="304.0" width="300.0" height="52.0" rx="10" fill="#FFFFFF" stroke="#26334D" stroke-width="1.4"/>
<text x="472.0" y="326.0" font-size="12.5" font-weight="700" fill="#26334D">all coins are mined — PoW (Σ-blocks), CPU-only</text>
<rect x="800.0" y="170.0" width="300.0" height="52.0" rx="10" fill="#141E36" stroke="#FBBF24" stroke-width="1.6"/>
<text x="812.0" y="192.0" font-size="12.5" font-weight="700" fill="#FBBF24">HALVING</text>
<rect x="800.0" y="230.0" width="300.0" height="70.0" rx="10" fill="#141E36" stroke="#FBBF24" stroke-width="1.4"/>
<text x="812.0" y="252.0" font-size="12.5" font-weight="700" fill="#FBBF24">every ~7,000,000 blocks</text>
<rect x="800.0" y="304.0" width="300.0" height="52.0" rx="10" fill="#FFFFFF" stroke="#26334D" stroke-width="1.4"/>
<text x="812.0" y="326.0" font-size="12.5" font-weight="700" fill="#26334D">≈ every 4 years, rewards halve — deflationary curve</text>
<rect x="1140.0" y="170.0" width="300.0" height="52.0" rx="10" fill="#141E36" stroke="#A78BFA" stroke-width="1.6"/>
<text x="1152.0" y="192.0" font-size="12.5" font-weight="700" fill="#A78BFA">REWARD SPLIT</text>
<rect x="1140.0" y="230.0" width="300.0" height="70.0" rx="10" fill="#141E36" stroke="#A78BFA" stroke-width="1.4"/>
<text x="1152.0" y="252.0" font-size="12.5" font-weight="700" fill="#A78BFA">88.4 / 10 / 1.6</text>
<rect x="1140.0" y="304.0" width="300.0" height="52.0" rx="10" fill="#FFFFFF" stroke="#26334D" stroke-width="1.4"/>
<text x="1152.0" y="326.0" font-size="12.5" font-weight="700" fill="#26334D">miners / [pool or integrator &amp; ecosystem] — DRAFT: verify against source</text>
<rect x="1480.0" y="170.0" width="300.0" height="52.0" rx="10" fill="#141E36" stroke="#2DD4BF" stroke-width="1.6"/>
<text x="1492.0" y="192.0" font-size="12.5" font-weight="700" fill="#2DD4BF">FEES</text>
<rect x="1480.0" y="230.0" width="300.0" height="70.0" rx="10" fill="#141E36" stroke="#2DD4BF" stroke-width="1.4"/>
<text x="1492.0" y="252.0" font-size="12.5" font-weight="700" fill="#2DD4BF">paid in DERO</text>
<rect x="1480.0" y="304.0" width="300.0" height="52.0" rx="10" fill="#FFFFFF" stroke="#26334D" stroke-width="1.4"/>
<text x="1492.0" y="326.0" font-size="12.5" font-weight="700" fill="#26334D">per-tx fees + SC install/registration costs</text>
<rect x="120.0" y="640.0" width="1560.0" height="76.0" rx="10" fill="#141E36" stroke="#" stroke-width="1.3"/>
<text x="132.0" y="662.0" font-size="12.5" font-weight="700" fill="#">Why it matters: fixed supply + mining-only emission + periodic halving = a predictable, deflationary monetary base — the same properties people look for in ‘sound money.’ Numbers are DRAFT — the exact reward split and halving block height should be verified against derohe source before anyone cites them.</text>
</svg>