<svg xmlns="http://www.w3.org/2000/svg" width="1920" height="980" viewBox="0 0 1920 980" font-family="Segoe UI, Arial, sans-serif">
<rect x="0" y="0" width="1920" height="980" fill="#0B1220"/>
<defs><marker id="arr" viewBox="0 0 10 10" refX="8" refY="5" markerWidth="7" markerHeight="7" orient="auto-start-reverse"><path d="M0,0 L10,5 L0,10 z" fill="#38BDF8"/></marker></defs>
<rect x="18.0" y="934.0" width="400.0" height="34.0" rx="10" fill="#2A1216" stroke="#F87171" stroke-width="1.5"/>
<text x="30.0" y="956.0" font-size="12.5" font-weight="700" fill="#F87171">⚠️ DRAFT — community draft — not verified, reviewed, or audited</text>
<rect x="20.0" y="22.0" width="1880.0" height="42.0" rx="10" fill="#FFFFFF" stroke="#26334D" stroke-width="1.4"/>
<text x="32.0" y="44.0" font-size="12.5" font-weight="700" fill="#26334D">DERO SYSTEMS REFERENCE — SOURCE-TREE MAP</text>
<rect x="20.0" y="66.0" width="1880.0" height="22.0" rx="10" fill="#FFFFFF" stroke="#26334D" stroke-width="1.4"/>
<text x="32.0" y="88.0" font-size="12.5" font-weight="700" fill="#26334D">The deroproject/derohe repository, mapped to what each package owns.  Where to look when you want to change a thing.</text>
<rect x="60.0" y="130.0" width="890.0" height="130.0" rx="10" fill="#141E36" stroke="#1E88E5" stroke-width="2.0"/>
<text x="72.0" y="152.0" font-size="12.5" font-weight="700" fill="#1E88E5">cmd/  binaries — derod, dero-wallet-cli, dero-miner, explorer</text>
<rect x="990.0" y="130.0" width="890.0" height="130.0" rx="10" fill="#141E36" stroke="#1E88E5" stroke-width="2.0"/>
<text x="1002.0" y="152.0" font-size="12.5" font-weight="700" fill="#1E88E5">config/  constants — BLOCK_TIME=18, MINIBLOCK_HIGHDIFF=9, ports</text>
<rect x="60.0" y="290.0" width="890.0" height="130.0" rx="10" fill="#141E36" stroke="#00838F" stroke-width="2.0"/>
<text x="72.0" y="312.0" font-size="12.5" font-weight="700" fill="#00838F">block/  block &amp; mini-block (Σ-block) structures, DAG collection</text>
<rect x="990.0" y="290.0" width="890.0" height="130.0" rx="10" fill="#141E36" stroke="#00838F" stroke-width="2.0"/>
<text x="1002.0" y="312.0" font-size="12.5" font-weight="700" fill="#00838F">blockchain/  consensus, validation, execution, rewards (transaction_execute.go)</text>
<rect x="60.0" y="450.0" width="890.0" height="130.0" rx="10" fill="#141E36" stroke="#1E88E5" stroke-width="2.0"/>
<text x="72.0" y="472.0" font-size="12.5" font-weight="700" fill="#1E88E5">p2p/  TLS network, gossip, time-check (p2p/controller.go)</text>
<rect x="990.0" y="450.0" width="890.0" height="130.0" rx="10" fill="#141E36" stroke="#2E7D32" stroke-width="2.0"/>
<text x="1002.0" y="472.0" font-size="12.5" font-weight="700" fill="#2E7D32">rpc/  daemon JSON-RPC + GETWORK websocket (rpc_dero.go)</text>
<rect x="60.0" y="610.0" width="890.0" height="130.0" rx="10" fill="#141E36" stroke="#2E7D32" stroke-width="2.0"/>
<text x="72.0" y="632.0" font-size="12.5" font-weight="700" fill="#2E7D32">walletapi/  wallet RPC + XSWD bridge (walletapi/xswd)</text>
<rect x="990.0" y="610.0" width="890.0" height="130.0" rx="10" fill="#141E36" stroke="#C62828" stroke-width="2.0"/>
<text x="1002.0" y="632.0" font-size="12.5" font-weight="700" fill="#C62828">cryptography/  bn256, homomorphic enc, ring sigs, bulletproofs</text>
<rect x="60.0" y="770.0" width="890.0" height="130.0" rx="10" fill="#141E36" stroke="#8E24AA" stroke-width="2.0"/>
<text x="72.0" y="792.0" font-size="12.5" font-weight="700" fill="#8E24AA">dvm/  DeroScript / DVM-BASIC compiler + runtime</text>
<rect x="990.0" y="770.0" width="890.0" height="130.0" rx="10" fill="#141E36" stroke="#FB8C00" stroke-width="2.0"/>
<text x="1002.0" y="792.0" font-size="12.5" font-weight="700" fill="#FB8C00">pow/ + astrobwt/  PoW plumbing + AstroBWTv3 algorithm</text>
<rect x="60.0" y="930.0" width="890.0" height="130.0" rx="10" fill="#141E36" stroke="#94A3B8" stroke-width="2.0"/>
<text x="72.0" y="952.0" font-size="12.5" font-weight="700" fill="#94A3B8">premine/ + proof/  genesis/premine · transaction proof system</text>
<rect x="990.0" y="930.0" width="890.0" height="130.0" rx="10" fill="#141E36" stroke="#94A3B8" stroke-width="2.0"/>
<text x="1002.0" y="952.0" font-size="12.5" font-weight="700" fill="#94A3B8">metrics/ + glue/  observability · internal glue (rwc)</text>
<rect x="60.0" y="860.0" width="1800.0" height="60.0" rx="10" fill="#141E36" stroke="#38BDF8" stroke-width="1.5"/>
<text x="72.0" y="882.0" font-size="12.5" font-weight="700" fill="#38BDF8">DEROFDN/derohe is now the single home for both development and releases. Current release: Release153 (Hard-Fork 3 follow-up, 21 Aug 2026) — HF3 activated at block 7,504,640; run Release153+ to stay in sync. deroproject/derohe is the upstream archive.</text>
</svg>