<svg xmlns="http://www.w3.org/2000/svg" width="2400" height="1500" viewBox="0 0 2400 1500" font-family="Segoe UI, Arial, sans-serif">

<defs>
 <linearGradient id="bgGrad" x1="0" y1="0" x2="0" y2="1">
   <stop offset="0" stop-color="#F4F7FC"/><stop offset="1" stop-color="#E9EEF8"/>
 </linearGradient>
 <linearGradient id="titleGrad" x1="0" y1="0" x2="1" y2="0">
   <stop offset="0" stop-color="#2563EB"/><stop offset="0.5" stop-color="#A78BFA"/><stop offset="1" stop-color="#10B981"/>
 </linearGradient>
 <filter id="glow" x="-40%" y="-40%" width="180%" height="180%"><feGaussianBlur stdDeviation="6" result="b"/><feMerge><feMergeNode in="b"/><feMergeNode in="SourceGraphic"/></feMerge></filter>
 <filter id="soft" x="-20%" y="-20%" width="140%" height="140%"><feDropShadow dx="0" dy="6" stdDeviation="12" flood-color="#000000" flood-opacity="0.55"/></filter>
</defs>
<rect x="0" y="0" width="2400" height="1500" fill="url(#bgGrad)"/>
<text x="1200.0" y="46" text-anchor="middle" font-size="34" font-weight="800" fill="url(#titleGrad)" style="letter-spacing:1px">DHEBP PAPER</text>
<text x="1200.0" y="76" text-anchor="middle" font-size="13" fill="#5A6B7A">Theme: light — preview every template component here. Dark = share/cyber · Light = print/reference.</text>
<rect x="60" y="130" width="1100" height="340" rx="16" fill="#FFFFFF" stroke="#2563EB" stroke-opacity="0.55" stroke-width="1.5"  filter="url(#soft)"/>
<rect x="60" y="130" width="1100" height="6" rx="3" fill="#2563EB" fill-opacity="0.9"/>
<circle cx="98" cy="166" r="20" fill="url(#titleGrad)" stroke="#0B1220" stroke-width="2" filter="url(#glow)"/>
<text x="98" y="173" text-anchor="middle" font-size="20" font-weight="800" fill="#FFFFFF">1</text>
<text x="130" y="172" font-size="16" font-weight="700" fill="#2563EB">ZONE PANEL — live (solid)</text>
<rect x="60" y="490" width="1100" height="300" rx="16" fill="#FFFFFF" stroke="#F97316" stroke-opacity="0.55" stroke-width="1.5" stroke-dasharray="10 7" filter="url(#soft)"/>
<rect x="60" y="490" width="1100" height="6" rx="3" fill="#F97316" fill-opacity="0.9"/>
<circle cx="98" cy="526" r="20" fill="url(#titleGrad)" stroke="#0B1220" stroke-width="2" filter="url(#glow)"/>
<text x="98" y="533" text-anchor="middle" font-size="20" font-weight="800" fill="#FFFFFF">4</text>
<text x="130" y="532" font-size="16" font-weight="700" fill="#F97316">ZONE PANEL — hypothetical (dashed)</text>
<rect x="1300" y="130" width="380" height="110" rx="12" fill="#FFFFFF" stroke="#2563EB" stroke-opacity="0.65" stroke-width="1.2" />
<text x="1490.0" y="154" text-anchor="middle" font-size="10.5" font-weight="700" fill="#2563EB">CHIP · blue</text>
<text x="1490.0" y="173" text-anchor="middle" font-size="9.5" fill="#5A6B7A">default card</text>
<rect x="1720" y="130" width="380" height="110" rx="12" fill="#FFFFFF" stroke="#10B981" stroke-opacity="0.65" stroke-width="1.2" />
<text x="1910.0" y="154" text-anchor="middle" font-size="10.5" font-weight="700" fill="#10B981">CHIP · green</text>
<text x="1910.0" y="173" text-anchor="middle" font-size="9.5" fill="#5A6B7A">default card</text>
<rect x="1300" y="260" width="380" height="110" rx="12" fill="#FFFFFF" stroke="#0D9488" stroke-opacity="0.65" stroke-width="1.2" />
<text x="1490.0" y="284" text-anchor="middle" font-size="10.5" font-weight="700" fill="#0D9488">CHIP · teal</text>
<text x="1490.0" y="303" text-anchor="middle" font-size="9.5" fill="#5A6B7A">default card</text>
<rect x="1720" y="260" width="380" height="110" rx="12" fill="#FFFFFF" stroke="#8B5CF6" stroke-opacity="0.65" stroke-width="1.2" />
<text x="1910.0" y="284" text-anchor="middle" font-size="10.5" font-weight="700" fill="#8B5CF6">CHIP · purple</text>
<text x="1910.0" y="303" text-anchor="middle" font-size="9.5" fill="#5A6B7A">default card</text>
<rect x="1300" y="440" width="66.8" height="22" rx="11.0" fill="#10B981"/>
<text x="1333.4" y="455" text-anchor="middle" font-size="10" font-weight="700" fill="#FFFFFF">LIVE</text>
<rect x="1400" y="440" width="91.39999999999999" height="22" rx="11.0" fill="#F59E0B"/>
<text x="1445.7" y="455" text-anchor="middle" font-size="10" font-weight="700" fill="#FFFFFF">PARTIAL</text>
<rect x="1520" y="440" width="132.39999999999998" height="22" rx="11.0" fill="#DC2626"/>
<text x="1586.2" y="455" text-anchor="middle" font-size="10" font-weight="700" fill="#FFFFFF">EXPERIMENTAL</text>
<marker id="ar-blue" viewBox="0 0 10 10" refX="8" refY="5" markerWidth="8" markerHeight="8" orient="auto-start-reverse"><path d="M0,0 L10,5 L0,10 z" fill="#2563EB"/></marker>
<path d="M 220 900 L 700 900" fill="none" stroke="#2563EB" stroke-width="3"  marker-end="url(#ar-blue)"/>
<text x="700" y="892" text-anchor="middle" font-size="11" font-weight="700" fill="#2563EB" stroke="#0B1220" stroke-width="4" paint-order="stroke">solid connector</text>
<marker id="ar-purple" viewBox="0 0 10 10" refX="8" refY="5" markerWidth="8" markerHeight="8" orient="auto-start-reverse"><path d="M0,0 L10,5 L0,10 z" fill="#8B5CF6"/></marker>
<path d="M 900 900 L 1400 900" fill="none" stroke="#8B5CF6" stroke-width="3" stroke-dasharray="8 6" marker-end="url(#ar-purple)"/>
<text x="1400" y="892" text-anchor="middle" font-size="11" font-weight="700" fill="#8B5CF6" stroke="#0B1220" stroke-width="4" paint-order="stroke">dashed = hypothetical</text>
<marker id="ar-green" viewBox="0 0 10 10" refX="8" refY="5" markerWidth="8" markerHeight="8" orient="auto-start-reverse"><path d="M0,0 L10,5 L0,10 z" fill="#10B981"/></marker>
<path d="M 1600 900 L 2100 900" fill="none" stroke="#10B981" stroke-width="3"  marker-end="url(#ar-green)"/>
<text x="2100" y="892" text-anchor="middle" font-size="11" font-weight="700" fill="#10B981" stroke="#0B1220" stroke-width="4" paint-order="stroke">thick flow</text>
<text x="60" y="1036" font-size="15" font-weight="700" fill="#">THE 30-SECOND VERSION</text>
<rect x="60" y="1048" width="2280" height="64" rx="12" fill="#FFFFFF" stroke="#" stroke-width="1.5"/>
<text x="1200" y="1086" text-anchor="middle" font-size="14" fill="#1C2A3A">The template system lives in dero_style.py — set S.set_theme(‘dark’ / ‘light’) and every component re-themes itself. Draw.io XML and SVG render from the same helpers.</text>
<rect x="18" y="1454" width="400" height="34" rx="8" fill="#FDEBEC" stroke="#DC2626" stroke-width="1.5"/>
<text x="218" y="1476" text-anchor="middle" font-size="11" font-weight="700" fill="#B91C1C">⚠️ DRAFT — community draft: not verified, reviewed, or audited</text>
</svg>