<svg xmlns="http://www.w3.org/2000/svg" width="1920" height="1140" viewBox="0 0 1920 1140" font-family="Segoe UI, Arial, sans-serif">
<rect x="0" y="0" width="1920" height="1140" fill="#0B1220"/>
<defs><marker id="arr" viewBox="0 0 10 10" refX="8" refY="5" markerWidth="7" markerHeight="7" orient="auto-start-reverse"><path d="M0,0 L10,5 L0,10 z" fill="#38BDF8"/></marker></defs>
<rect x="18.0" y="1094.0" width="400.0" height="34.0" rx="10" fill="#2A1216" stroke="#F87171" stroke-width="1.5"/>
<text x="30.0" y="1116.0" font-size="12.5" font-weight="700" fill="#F87171">⚠️ DRAFT — community draft — not verified, reviewed, or audited</text>
<rect x="20.0" y="22.0" width="1880.0" height="42.0" rx="10" fill="#FFFFFF" stroke="#26334D" stroke-width="1.4"/>
<text x="32.0" y="44.0" font-size="12.5" font-weight="700" fill="#26334D">DERO SYSTEMS REFERENCE — FULL-NODE ARCHITECTURE</text>
<rect x="20.0" y="66.0" width="1880.0" height="22.0" rx="10" fill="#FFFFFF" stroke="#26334D" stroke-width="1.4"/>
<text x="32.0" y="88.0" font-size="12.5" font-weight="700" fill="#26334D">Everything one DERO node runs, and everything that attaches to it.  Ports are mainnet defaults.  Grounded in derod.org + deroproject/derohe source layout.</text>
<rect x="40.0" y="130.0" width="360.0" height="60.0" rx="10" fill="#E8F5E9" stroke="#2E7D32" stroke-width="2.0"/>
<text x="52.0" y="152.0" font-size="12.5" font-weight="700" fill="#2E7D32">WALLET — CLI / RPC (10103)</text>
<rect x="40.0" y="192.0" width="360.0" height="34.0" rx="10" fill="#FFFFFF" stroke="#26334D" stroke-width="1.4"/>
<text x="52.0" y="214.0" font-size="12.5" font-weight="700" fill="#26334D">dero-wallet-cli · keys never leave the wallet · builds &amp; signs txs</text>
<rect x="40.0" y="236.0" width="360.0" height="60.0" rx="10" fill="#E8F5E9" stroke="#2E7D32" stroke-width="2.0"/>
<text x="52.0" y="258.0" font-size="12.5" font-weight="700" fill="#2E7D32">ENGRAM — smart wallet</text>
<rect x="40.0" y="298.0" width="360.0" height="34.0" rx="10" fill="#FFFFFF" stroke="#26334D" stroke-width="1.4"/>
<text x="52.0" y="320.0" font-size="12.5" font-weight="700" fill="#26334D">GUI + TELA browser · XSWD bridge for dApps · 10103</text>
<rect x="1520.0" y="130.0" width="360.0" height="60.0" rx="10" fill="#FFF3E0" stroke="#FB8C00" stroke-width="2.0"/>
<text x="1532.0" y="152.0" font-size="12.5" font-weight="700" fill="#FB8C00">MINER — dero-miner / tnn-miner</text>
<rect x="1520.0" y="192.0" width="360.0" height="34.0" rx="10" fill="#FFFFFF" stroke="#26334D" stroke-width="1.4"/>
<text x="1532.0" y="214.0" font-size="12.5" font-weight="700" fill="#26334D">AstroBWTv3 work → GETWORK 10100 · submits Σ-block shares</text>
<rect x="440.0" y="120.0" width="1040.0" height="760.0" rx="10" fill="#141E36" stroke="#38BDF8" stroke-width="2.5"/>
<text x="452.0" y="142.0" font-size="12.5" font-weight="700" fill="#38BDF8">DEROD — THE NODE</text>
<rect x="460.0" y="165.0" width="490.0" height="120.0" rx="10" fill="#141E36" stroke="#1E88E5" stroke-width="1.8"/>
<text x="472.0" y="187.0" font-size="12.5" font-weight="700" fill="#1E88E5">P2P · TLS</text>
<text x="472.0" y="202.0" font-size="10.5" font-weight="400" fill="#5A6B7A">gossip + sync · p2p/connection.go · port 10101 (randomized)</text>
<rect x="970.0" y="165.0" width="490.0" height="120.0" rx="10" fill="#141E36" stroke="#00838F" stroke-width="1.8"/>
<text x="982.0" y="187.0" font-size="12.5" font-weight="700" fill="#00838F">Mempool</text>
<text x="982.0" y="202.0" font-size="10.5" font-weight="400" fill="#5A6B7A">unconfirmed tx pool · shared with peers</text>
<rect x="460.0" y="301.0" width="490.0" height="120.0" rx="10" fill="#141E36" stroke="#1E88E5" stroke-width="1.8"/>
<text x="472.0" y="323.0" font-size="12.5" font-weight="700" fill="#1E88E5">Consensus core</text>
<text x="472.0" y="338.0" font-size="10.5" font-weight="400" fill="#5A6B7A">validate (transaction_verify.go) + execute (transaction_execute.go) · Σ-block logic</text>
<rect x="970.0" y="301.0" width="490.0" height="120.0" rx="10" fill="#141E36" stroke="#00838F" stroke-width="1.8"/>
<text x="982.0" y="323.0" font-size="12.5" font-weight="700" fill="#00838F">GravitonDB</text>
<text x="982.0" y="338.0" font-size="10.5" font-weight="400" fill="#5A6B7A">encrypted key/value state · accounts · merkle-proved · prunable</text>
<rect x="460.0" y="437.0" width="490.0" height="120.0" rx="10" fill="#141E36" stroke="#8E24AA" stroke-width="1.8"/>
<text x="472.0" y="459.0" font-size="12.5" font-weight="700" fill="#8E24AA">DVM</text>
<text x="472.0" y="474.0" font-size="10.5" font-weight="400" fill="#5A6B7A">DVM-BASIC contract runtime · private SC state</text>
<rect x="970.0" y="437.0" width="490.0" height="120.0" rx="10" fill="#141E36" stroke="#2E7D32" stroke-width="1.8"/>
<text x="982.0" y="459.0" font-size="12.5" font-weight="700" fill="#2E7D32">JSON-RPC server</text>
<text x="982.0" y="474.0" font-size="10.5" font-weight="400" fill="#5A6B7A">daemon API · port 10102 · rpc/rpc_dero.go</text>
<rect x="460.0" y="573.0" width="490.0" height="120.0" rx="10" fill="#141E36" stroke="#FB8C00" stroke-width="1.8"/>
<text x="472.0" y="595.0" font-size="12.5" font-weight="700" fill="#FB8C00">GETWORK server</text>
<text x="472.0" y="610.0" font-size="10.5" font-weight="400" fill="#5A6B7A">miner work + results · port 10100 · websocket</text>
<rect x="40.0" y="920.0" width="700.0" height="22.0" rx="10" fill="#FFFFFF" stroke="#26334D" stroke-width="1.4"/>
<text x="52.0" y="942.0" font-size="12.5" font-weight="700" fill="#26334D">ATTACHED SERVICES — what the ecosystem runs against the node</text>
<rect x="40.0" y="948.0" width="290.0" height="120.0" rx="10" fill="#141E36" stroke="#8E24AA" stroke-width="1.8"/>
<text x="52.0" y="970.0" font-size="12.5" font-weight="700" fill="#8E24AA">EXPLORER / INDEXERS</text>
<text x="52.0" y="985.0" font-size="10.5" font-weight="400" fill="#5A6B7A">Gnomon · HyperGnomon · derohist · read RPC 10102</text>
<rect x="342.0" y="948.0" width="290.0" height="120.0" rx="10" fill="#141E36" stroke="#8E24AA" stroke-width="1.8"/>
<text x="354.0" y="970.0" font-size="12.5" font-weight="700" fill="#8E24AA">AI / MCP bridge</text>
<text x="354.0" y="985.0" font-size="10.5" font-weight="400" fill="#5A6B7A">dero-mcp-server · read-only over RPC</text>
<rect x="644.0" y="948.0" width="290.0" height="120.0" rx="10" fill="#141E36" stroke="#00838F" stroke-width="1.8"/>
<text x="656.0" y="970.0" font-size="12.5" font-weight="700" fill="#00838F">dApp layer</text>
<text x="656.0" y="985.0" font-size="10.5" font-weight="400" fill="#5A6B7A">TELA · DeroAuth · DeroPay · DeroBeats · Hologram · reach wallets via XSWD</text>
</svg>